<svg width="24" height="24" viewBox="0 0 24 24" fill="none" xmlns="http://www.w3.org/2000/svg">
<mask id="path-1-inside-1_2410_539" fill="white">
<path fill-rule="evenodd" clip-rule="evenodd" d="M12 24C18.6274 24 24 18.6274 24 12C24 5.37258 18.6274 0 12 0C5.37258 0 0 5.37258 0 12C0 18.6274 5.37258 24 12 24ZM6.24073 18.4234C5.81799 18.6199 5.38013 18.182 5.57658 17.7593L9.36481 9.60753C9.41454 9.50051 9.50051 9.41454 9.60753 9.36481L17.7593 5.57658C18.182 5.38013 18.6199 5.81799 18.4234 6.24073L14.6352 14.3925C14.5855 14.4995 14.4995 14.5855 14.3925 14.6352L6.24073 18.4234ZM13.3999 12C13.3999 11.2236 12.7762 10.6 11.9999 10.6C11.2235 10.6 10.5999 11.2236 10.5999 12C10.5999 12.7764 11.2235 13.4 11.9999 13.4C12.7762 13.4 13.3999 12.7764 13.3999 12Z"/>
</mask>
<path fill-rule="evenodd" clip-rule="evenodd" d="M12 24C18.6274 24 24 18.6274 24 12C24 5.37258 18.6274 0 12 0C5.37258 0 0 5.37258 0 12C0 18.6274 5.37258 24 12 24ZM6.24073 18.4234C5.81799 18.6199 5.38013 18.182 5.57658 17.7593L9.36481 9.60753C9.41454 9.50051 9.50051 9.41454 9.60753 9.36481L17.7593 5.57658C18.182 5.38013 18.6199 5.81799 18.4234 6.24073L14.6352 14.3925C14.5855 14.4995 14.4995 14.5855 14.3925 14.6352L6.24073 18.4234ZM13.3999 12C13.3999 11.2236 12.7762 10.6 11.9999 10.6C11.2235 10.6 10.5999 11.2236 10.5999 12C10.5999 12.7764 11.2235 13.4 11.9999 13.4C12.7762 13.4 13.3999 12.7764 13.3999 12Z" fill="black"/>
<path d="M5.57658 17.7593L3.94423 17.0007L5.57658 17.7593ZM6.24073 18.4234L6.9993 20.0558H6.99931L6.24073 18.4234ZM9.36481 9.60753L10.9972 10.3661L10.9972 10.3661L9.36481 9.60753ZM9.60753 9.36481L10.3661 10.9972L9.60753 9.36481ZM17.7593 5.57658L17.0007 3.94424L17.7593 5.57658ZM18.4234 6.24073L20.0558 6.9993V6.9993L18.4234 6.24073ZM14.6352 14.3925L13.0028 13.6339V13.6339L14.6352 14.3925ZM14.3925 14.6352L13.6339 13.0028H13.6339L14.3925 14.6352ZM22.2 12C22.2 17.6333 17.6333 22.2 12 22.2V25.8C19.6215 25.8 25.8 19.6215 25.8 12H22.2ZM12 1.8C17.6333 1.8 22.2 6.3667 22.2 12H25.8C25.8 4.37847 19.6215 -1.8 12 -1.8V1.8ZM1.8 12C1.8 6.3667 6.3667 1.8 12 1.8V-1.8C4.37847 -1.8 -1.8 4.37847 -1.8 12H1.8ZM12 22.2C6.3667 22.2 1.8 17.6333 1.8 12H-1.8C-1.8 19.6215 4.37847 25.8 12 25.8V22.2ZM3.94423 17.0007C3.04056 18.9453 5.05472 20.9594 6.9993 20.0558L5.48216 16.7911C6.58127 16.2803 7.71971 17.4187 7.20893 18.5178L3.94423 17.0007ZM7.73246 8.84895L3.94423 17.0007L7.20893 18.5178L10.9972 10.3661L7.73246 8.84895ZM8.84895 7.73246C8.35671 7.96121 7.96122 8.3567 7.73246 8.84896L10.9972 10.3661C10.8679 10.6443 10.6443 10.8679 10.3661 10.9972L8.84895 7.73246ZM17.0007 3.94424L8.84895 7.73246L10.3661 10.9972L18.5178 7.20893L17.0007 3.94424ZM20.0558 6.9993C20.9594 5.05471 18.9453 3.04056 17.0007 3.94424L18.5178 7.20893C17.4187 7.71971 16.2803 6.58127 16.7911 5.48216L20.0558 6.9993ZM16.2675 15.151L20.0558 6.9993L16.7911 5.48215L13.0028 13.6339L16.2675 15.151ZM15.151 16.2675C15.6433 16.0388 16.0388 15.6433 16.2675 15.151L13.0028 13.6339C13.1321 13.3557 13.3557 13.1321 13.6339 13.0028L15.151 16.2675ZM6.99931 20.0558L15.151 16.2675L13.6339 13.0028L5.48216 16.7911L6.99931 20.0558ZM11.9999 12.4C11.7821 12.4 11.5999 12.2177 11.5999 12H15.1999C15.1999 10.2295 13.7704 8.79999 11.9999 8.79999V12.4ZM12.3999 12C12.3999 12.2177 12.2176 12.4 11.9999 12.4V8.79999C10.2294 8.79999 8.79988 10.2295 8.79988 12H12.3999ZM11.9999 11.6C12.2176 11.6 12.3999 11.7822 12.3999 12H8.79988C8.79988 13.7705 10.2294 15.2 11.9999 15.2V11.6ZM11.5999 12C11.5999 11.7822 11.7821 11.6 11.9999 11.6V15.2C13.7704 15.2 15.1999 13.7705 15.1999 12H11.5999Z" fill="black" mask="url(#path-1-inside-1_2410_539)"/>
</svg>
