<svg width="24" height="24" viewBox="0 0 24 24" fill="none" xmlns="http://www.w3.org/2000/svg">
<circle cx="12" cy="12" r="11.1" stroke="black" stroke-width="1.8"/>
<path fill-rule="evenodd" clip-rule="evenodd" d="M6.57658 16.7593C6.38013 17.182 6.81799 17.6199 7.24073 17.4234L14.027 14.2697C14.134 14.22 14.22 14.134 14.2697 14.027L17.4234 7.24073C17.6199 6.81799 17.182 6.38013 16.7593 6.57658L9.97298 9.73027C9.86597 9.78 9.78 9.86597 9.73027 9.97298L6.57658 16.7593ZM11.9999 10.8C12.6653 10.8 13.1999 11.3345 13.1999 12C13.1999 12.6654 12.6653 13.2 11.9999 13.2C11.3344 13.2 10.7999 12.6654 10.7999 12C10.7999 11.3345 11.3344 10.8 11.9999 10.8Z" fill="black"/>
</svg>
