<svg width="24" height="24" viewBox="0 0 24 24" fill="none" xmlns="http://www.w3.org/2000/svg">
<path fill-rule="evenodd" clip-rule="evenodd" d="M10.5509 4.62558C11.3622 3.85196 12.638 3.85196 13.4493 4.62558L20.4493 11.3006C20.8649 11.6969 21.1001 12.2461 21.1001 12.8204V19C21.1001 20.1598 20.1599 21.1 19.0001 21.1H16.7985V16.8985C16.7985 14.2484 14.6502 12.1 12.0001 12.1C9.34999 12.1 7.20166 14.2484 7.20166 16.8985V21.1H5.0001C3.8403 21.1 2.9001 20.1598 2.9001 19V12.8204C2.9001 12.2461 3.13527 11.6969 3.55087 11.3006L10.5509 4.62558ZM9.0001 22V22.9H5.0001C2.84619 22.9 1.1001 21.1539 1.1001 19V12.8204C1.1001 11.7539 1.53685 10.7339 2.30867 9.99795L9.30867 3.32291C10.8153 1.88618 13.1848 1.88618 14.6915 3.32291L21.6915 9.99795C22.4633 10.7339 22.9001 11.7539 22.9001 12.8204V19C22.9001 21.1539 21.154 22.9 19.0001 22.9H15.0001V22H14.9985V16.8985C14.9985 15.2425 13.6561 13.9 12.0001 13.9C10.3441 13.9 9.00166 15.2425 9.00166 16.8985V22H9.0001Z" fill="black"/>
</svg>
