<svg width="24" height="24" viewBox="0 0 24 24" fill="none" xmlns="http://www.w3.org/2000/svg">
<path fill-rule="evenodd" clip-rule="evenodd" d="M22 12.8204V19C22 20.6568 20.6569 22 19 22H16V17C16 14.7909 14.2091 13 12 13C9.79086 13 8 14.7909 8 17V22H5C3.34315 22 2 20.6568 2 19V12.8204C2 12 2.33596 11.2154 2.92967 10.6492L9.92967 3.97421C11.0887 2.86903 12.9113 2.86903 14.0703 3.97421L21.0703 10.6492C21.664 11.2154 22 12 22 12.8204Z" fill="black"/>
<path d="M16 22H15.5V22.5H16V22ZM8 22V22.5H8.5V22H8ZM2.92967 10.6492L3.27473 11.0111L3.27473 11.0111L2.92967 10.6492ZM9.92967 3.97421L9.58462 3.61235L9.92967 3.97421ZM14.0703 3.97421L14.4154 3.61236V3.61236L14.0703 3.97421ZM21.0703 10.6492L20.7253 11.0111L21.0703 10.6492ZM22.5 19V12.8204H21.5V19H22.5ZM19 22.5C20.933 22.5 22.5 20.933 22.5 19H21.5C21.5 20.3807 20.3807 21.5 19 21.5V22.5ZM16 22.5H19V21.5H16V22.5ZM16.5 22V17H15.5V22H16.5ZM16.5 17C16.5 14.5147 14.4853 12.5 12 12.5V13.5C13.933 13.5 15.5 15.067 15.5 17H16.5ZM12 12.5C9.51472 12.5 7.5 14.5147 7.5 17H8.5C8.5 15.067 10.067 13.5 12 13.5V12.5ZM7.5 17V22H8.5V17H7.5ZM5 22.5H8V21.5H5V22.5ZM1.5 19C1.5 20.933 3.067 22.5 5 22.5V21.5C3.61929 21.5 2.5 20.3807 2.5 19H1.5ZM1.5 12.8204V19H2.5V12.8204H1.5ZM2.58462 10.2874C1.89196 10.9479 1.5 11.8633 1.5 12.8204H2.5C2.5 12.1367 2.77997 11.4829 3.27473 11.0111L2.58462 10.2874ZM9.58462 3.61235L2.58462 10.2874L3.27473 11.0111L10.2747 4.33606L9.58462 3.61235ZM14.4154 3.61236C13.0632 2.32298 10.9368 2.32298 9.58462 3.61235L10.2747 4.33606C11.2405 3.41508 12.7595 3.41508 13.7253 4.33606L14.4154 3.61236ZM21.4154 10.2874L14.4154 3.61236L13.7253 4.33606L20.7253 11.0111L21.4154 10.2874ZM22.5 12.8204C22.5 11.8633 22.108 10.9479 21.4154 10.2874L20.7253 11.0111C21.22 11.4829 21.5 12.1367 21.5 12.8204H22.5Z" fill="black"/>
</svg>
