<svg width="24" height="24" viewBox="0 0 24 24" fill="none" xmlns="http://www.w3.org/2000/svg">
<path d="M2 16.5L2 17C2 19.7614 4.23858 22 7 22H17C19.7614 22 22 19.7614 22 17V16.5M2 16.5L2 7C2 4.23858 4.23858 2 7 2H17C19.7614 2 22 4.23858 22 7V16.5M2 16.5H6.58579C7.49129 16.5 8.35971 16.8597 9 17.5V17.5C9.64029 18.1403 10.5087 18.5 11.4142 18.5H12.5858C13.4913 18.5 14.3597 18.1403 15 17.5V17.5C15.6403 16.8597 16.5087 16.5 17.4142 16.5H22" stroke="black" stroke-width="1.8"/>
<path d="M9 11L12 14M12 14L15 11M12 14V6" stroke="black" stroke-width="1.5" stroke-linecap="round" stroke-linejoin="round"/>
<path d="M2 16H6.16905C6.71278 16 7.24629 16.1478 7.71254 16.4275L9.29387 17.3763C9.43107 17.4586 9.57463 17.5299 9.72319 17.5893L10.8858 18.0543C11.6011 18.3404 12.3989 18.3404 13.1142 18.0543L14.2768 17.5893C14.4254 17.5299 14.5689 17.4586 14.7061 17.3763L16.2875 16.4275C16.7537 16.1478 17.2872 16 17.831 16H22V19C22 20.6569 20.6569 22 19 22H5C3.34315 22 2 20.6569 2 19V16Z" fill="black"/>
</svg>
