<svg width="24" height="24" viewBox="0 0 24 24" fill="none" xmlns="http://www.w3.org/2000/svg">
<path d="M2 16V17C2 19.7614 4.23858 22 7 22H17C19.7614 22 22 19.7614 22 17V16M2 16V7C2 4.23858 4.23858 2 7 2H17C19.7614 2 22 4.23858 22 7V16M2 16H6.58579C7.49129 16 8.35971 16.3597 9 17V17C9.64029 17.6403 10.5087 18 11.4142 18H12.5858C13.4913 18 14.3597 17.6403 15 17V17C15.6403 16.3597 16.5087 16 17.4142 16H22" stroke="black" stroke-width="1.8"/>
<path d="M9 11L12 14M12 14L15 11M12 14V6" stroke="black" stroke-width="1.5" stroke-linecap="round" stroke-linejoin="round"/>
</svg>
